<?xml version="1.0" standalone="no"?><!DOCTYPE svg PUBLIC "-//W3C//DTD SVG 1.1//EN" "http://www.w3.org/Graphics/SVG/1.1/DTD/svg11.dtd"><svg t="1625901922925" class="icon" viewBox="0 0 1024 1024" version="1.1" xmlns="http://www.w3.org/2000/svg" p-id="1964" xmlns:xlink="http://www.w3.org/1999/xlink" width="32" height="32"><defs><style type="text/css"></style></defs><path d="M160 224a128 128 0 0 1 128-128H832a32 32 0 0 1 32 32v672a32 32 0 0 1-32 32H288a64 64 0 0 0-64 64H768a32 32 0 0 1 31.701333 27.648l0.298667 4.352a32 32 0 0 1-27.648 31.701333L768 960H192a32 32 0 0 1-31.701333-27.648l-0.298667-4.352z m639.957333-64H288a64 64 0 0 0-64 64l-0.042667 561.152 1.493334-0.853333c16.426667-9.216 35.114667-14.933333 55.04-16.085334L288 768h511.957333V160z" p-id="1965" fill="#bfbfbf"></path></svg>