<?xml version="1.0" standalone="no"?><!DOCTYPE svg PUBLIC "-//W3C//DTD SVG 1.1//EN" "http://www.w3.org/Graphics/SVG/1.1/DTD/svg11.dtd"><svg t="1625909154264" class="icon" viewBox="0 0 6026 1024" version="1.1" xmlns="http://www.w3.org/2000/svg" p-id="6040" width="188.3125" height="32" xmlns:xlink="http://www.w3.org/1999/xlink"><defs><style type="text/css"></style></defs><path d="M5960.997796 568.525342l-295.714411 322.002644a55.171441 55.171441 0 0 1-78.413398 2.933451 56.412517 56.412517 0 0 1-2.933451-78.977523l262.205377-285.447334-263.784928-312.525342a56.412517 56.412517 0 0 1 6.205377-78.977523 54.832966 54.832966 0 0 1 78.074923 6.318202l295.714412 350.434553a56.412517 56.412517 0 0 1-1.353901 74.238872z m-375.48171 0l-295.714411 322.002644a55.171441 55.171441 0 0 1-78.413398 2.933451 56.412517 56.412517 0 0 1-2.933451-78.977523l262.205377-285.447334-263.784928-312.525342a56.412517 56.412517 0 0 1 6.205377-78.977523 54.832966 54.832966 0 0 1 78.074923 6.318202l295.940062 350.208903a56.412517 56.412517 0 0 1-1.579551 74.464522zM3733.831644 17.375055h530.277655v113.727633h-397.144116v316.925518h367.922433v112.825033h-368.260908v333.172323H4287.351256v112.825033h-552.842662V17.375055zM3188.435434 601.357426a739.003967 739.003967 0 0 1 79.992949 109.214632l192.592331 296.504187h-156.713971l-170.704275-274.728955a386.989863 386.989863 0 0 0-93.644777-112.148083 172.847951 172.847951 0 0 0-101.54253-29.672984H2843.190833v416.550022h-133.246364V17.375055H3023.710886a361.040106 361.040106 0 0 1 235.127369 69.613045 237.947995 237.947995 0 0 1 84.95725 194.848833 263.784927 263.784927 0 0 1-228.470692 267.056853v3.271926a211.434112 211.434112 0 0 1 73.110621 49.191714z m-41.181137-173.750551a171.94535 171.94535 0 0 0 56.412517-134.148964 149.041869 149.041869 0 0 0-51.786691-120.722785A229.034817 229.034817 0 0 0 3001.145879 129.184663h-157.955046v349.757602h156.713971a212.449537 212.449537 0 0 0 147.349493-51.33539zM1882.598502 1023.661525A462.582636 462.582636 0 0 1 1531.374174 885.112384 501.620097 501.620097 0 0 1 1399.03041 524.072279a530.841781 530.841781 0 0 1 135.39004-381.461437 479.957691 479.957691 0 0 1 364.763331-141.821067 452.654033 452.654033 0 0 1 345.357427 138.549141 504.553548 504.553548 0 0 1 130.764213 361.040106 531.970031 531.970031 0 0 1-134.148964 382.138387 471.382988 471.382988 0 0 1-358.557955 141.144116zM2143.675628 219.444689a318.956368 318.956368 0 0 0-252.389599-103.686205 324.936095 324.936095 0 0 0-254.984575 109.891582 417.452622 417.452622 0 0 0-97.593653 288.155135 419.934773 419.934773 0 0 0 95.337153 287.816659 315.910093 315.910093 0 0 0 248.215072 108.312032 331.254297 331.254297 0 0 0 258.707801-103.799031 417.452622 417.452622 0 0 0 93.983253-290.411635A432.571177 432.571177 0 0 0 2143.675628 219.444689zM931.144998 351.562803q0-81.121199 9.928603-194.848832h-3.384751a584.546496 584.546496 0 0 1-30.575584 99.737329L567.848391 1007.076245H494.173645l-338.475099-744.645218a648.179815 648.179815 0 0 1-30.575584-105.378581h-4.174527q6.656677 69.04892 6.656677 200.602909v649.87219H0.67695V17.375055H180.520053l303.499339 678.529749A860.403702 860.403702 0 0 1 530.277655 817.417364h4.400177q34.52446-91.388277 48.514764-124.107536L891.881886 17.375055h171.381226v989.70119H931.144998v-655.513442z" fill="#45c2b5" p-id="6041"></path></svg>